<svg width="1440" height="682" viewBox="0 0 1440 682" fill="none" xmlns="http://www.w3.org/2000/svg">
<rect width="1440" height="682"/>
<g clip-path="url(#clip0_0_1)">
<mask id="mask0_0_1" style="mask-type:luminance" maskUnits="userSpaceOnUse" x="0" y="0" width="1440" height="682">
<path d="M1440 0H0V682H1440V0Z" fill="white"/>
</mask>
<g mask="url(#mask0_0_1)">
<path d="M754.5 1104C1293.25 1104 1730 952.001 1730 764.5C1730 576.999 1293.25 425 754.5 425C215.746 425 -221 576.999 -221 764.5C-221 952.001 215.746 1104 754.5 1104Z" fill="url(#paint0_linear_0_1)"/>
<path d="M957.459 531.864L972.695 521.513L956.713 512.357L941.477 522.708L957.459 531.864Z" fill="#323269"/>
<path d="M958.209 551.371L973.445 541.02L957.463 531.864L942.227 542.215L958.209 551.371Z" fill="#323269"/>
<path d="M1068.58 576.451L1052.6 567.295L1037.36 577.646L1053.35 586.802L1068.58 576.451Z" fill="#323269"/>
<path d="M1099.81 575.252L1083.83 566.096L1068.59 576.447L1084.58 585.603L1099.81 575.252Z" fill="#323269"/>
<path d="M895.026 534.251L910.262 523.9L894.279 514.744L879.044 525.095L895.026 534.251Z" fill="#323269"/>
<path d="M1199.38 547.632L1184.14 557.983L1200.12 567.139L1215.36 556.788L1199.38 547.632Z" fill="#323269"/>
<path d="M1060.02 582.273L1076 591.429L1091.24 581.078L1075.25 571.922L1060.02 582.273Z" fill="#323269"/>
<path d="M1110.21 668.261L1125.45 657.91L1109.47 648.754L1094.23 659.105L1110.21 668.261Z" fill="#323269"/>
<path d="M1249.57 633.622L1233.59 624.466L1218.35 634.817L1234.34 643.973L1249.57 633.622Z" fill="#323269"/>
<path d="M884.158 583.834L868.922 594.186L916.869 621.654L932.105 611.303L884.158 583.834Z" fill="#323269"/>
<path d="M869.67 613.692L885.652 622.849L931.359 591.795L915.377 582.639L869.67 613.692Z" fill="#323269"/>
<path d="M1293.04 544.047L1277.8 554.398L1293.78 563.554L1309.02 553.203L1293.04 544.047Z" fill="#323269"/>
<path d="M1057.79 523.75L1073.77 532.906L1089.01 522.555L1073.02 513.399L1057.79 523.75Z" fill="#323269"/>
<path d="M1292.29 524.542L1277.05 534.893L1293.03 544.049L1308.27 533.698L1292.29 524.542Z" fill="#323269"/>
<path d="M1026.57 524.946L1042.55 534.102L1057.79 523.751L1041.8 514.595L1026.57 524.946Z" fill="#323269"/>
<path d="M1181.91 499.459L1197.89 508.615L1213.13 498.264L1197.14 489.108L1181.91 499.459Z" fill="#323269"/>
<path d="M1150.69 500.656L1166.67 509.812L1181.91 499.461L1165.92 490.305L1150.69 500.656Z" fill="#323269"/>
<path d="M982.342 595.01L997.578 584.659L981.596 575.503L966.36 585.854L982.342 595.01Z" fill="#323269"/>
<path d="M1327.25 620.881L1312.01 631.232L1327.99 640.388L1343.23 630.037L1327.25 620.881Z" fill="#323269"/>
<path d="M983.096 614.521L998.332 604.17L982.35 595.014L967.114 605.365L983.096 614.521Z" fill="#323269"/>
<path d="M1326.5 601.372L1311.26 611.723L1327.24 620.879L1342.48 610.528L1326.5 601.372Z" fill="#323269"/>
<path d="M1056.29 484.734L1072.27 493.89L1087.51 483.539L1071.52 474.383L1056.29 484.734Z" fill="#323269"/>
<path d="M1355.48 541.655L1340.24 552.006L1356.22 561.162L1371.46 550.811L1355.48 541.655Z" fill="#323269"/>
<path d="M868.924 594.185L852.942 585.029L792 626.432L807.983 635.589L868.924 594.185Z" fill="#323269"/>
<path d="M1283.03 690.948L1267.05 681.792L1251.81 692.143L1267.8 701.299L1283.03 690.948Z" fill="#323269"/>
<path d="M1186.39 616.506L1202.37 625.662L1263.31 584.258L1247.33 575.102L1186.39 616.506Z" fill="#323269"/>
<path d="M1123.95 618.896L1107.97 609.74L1077.5 630.442L1093.48 639.598L1123.95 618.896Z" fill="#323269"/>
<path d="M915.376 582.64L930.612 572.289L866.683 535.665L851.447 546.016L915.376 582.64Z" fill="#323269"/>
<path d="M1139.94 628.051L1124.7 638.402L1188.63 675.026L1203.86 664.675L1139.94 628.051Z" fill="#323269"/>
<path d="M1124.69 638.403L1108.71 629.247L1093.48 639.597L1109.46 648.754L1124.69 638.403Z" fill="#323269"/>
<path d="M931.359 591.795L947.342 600.952L977.812 580.25L961.83 571.094L931.359 591.795Z" fill="#323269"/>
<path d="M884.166 583.836L899.402 573.485L867.438 555.173L852.202 565.524L884.166 583.836Z" fill="#323269"/>
<path d="M1076.75 610.934L1060.77 601.778L999.827 643.183L1015.81 652.339L1076.75 610.934Z" fill="#323269"/>
<path d="M916.878 621.653L901.642 632.005L933.606 650.316L948.842 639.965L916.878 621.653Z" fill="#323269"/>
<path d="M1184.9 577.491L1200.88 586.647L1216.11 576.296L1200.13 567.14L1184.9 577.491Z" fill="#323269"/>
<path d="M1107.22 590.233L1122.46 579.882L1106.48 570.726L1091.24 581.078L1107.22 590.233Z" fill="#323269"/>
<path d="M1202.38 625.662L1187.14 636.013L1203.12 645.169L1218.36 634.817L1202.38 625.662Z" fill="#323269"/>
<path d="M1232.84 604.96L1248.82 614.116L1309.76 572.711L1293.78 563.555L1232.84 604.96Z" fill="#323269"/>
<path d="M898.646 553.976L913.882 543.625L849.952 507L834.716 517.351L898.646 553.976Z" fill="#323269"/>
<path d="M1156.67 656.714L1141.43 667.065L1205.36 703.69L1220.6 693.338L1156.67 656.714Z" fill="#323269"/>
<path d="M840.015 529.087L826.23 516.87L843.253 509.835L857.038 522.052L840.015 529.087Z" fill="#323269"/>
<path d="M836.777 548.338L822.992 536.121L840.015 529.086L853.8 541.303L836.777 548.338Z" fill="#323269"/>
<path d="M724.098 559.082L741.121 552.047L754.906 564.264L737.883 571.298L724.098 559.082Z" fill="#323269"/>
<path d="M329.711 583.6L346.734 576.565L360.519 588.781L343.496 595.816L329.711 583.6Z" fill="#323269"/>
<path d="M901.632 539.448L887.847 527.231L904.87 520.196L918.655 532.413L901.632 539.448Z" fill="#323269"/>
<path d="M600.789 491.079L614.574 503.295L597.551 510.33L583.766 498.114L600.789 491.079Z" fill="#323269"/>
<path d="M731.847 565.95L714.824 572.985L701.039 560.769L718.062 553.734L731.847 565.95Z" fill="#323269"/>
<path d="M671.062 644.808L657.277 632.591L674.3 625.556L688.085 637.773L671.062 644.808Z" fill="#323269"/>
<path d="M537.281 592.613L554.304 585.578L568.089 597.795L551.066 604.829L537.281 592.613Z" fill="#323269"/>
<path d="M653.203 562.622L666.988 574.838L615.919 595.943L602.134 583.726L653.203 562.622Z" fill="#323269"/>
<path d="M686.597 611.26L669.574 618.295L628.218 581.646L645.241 574.611L686.597 611.26Z" fill="#323269"/>
<path d="M505.641 498.213L519.426 510.429L502.403 517.464L488.618 505.248L505.641 498.213Z" fill="#323269"/>
<path d="M741.558 508.198L724.535 515.233L710.75 503.017L727.773 495.982L741.558 508.198Z" fill="#323269"/>
<path d="M527.571 650.367L544.594 643.332L558.379 655.549L541.356 662.583L527.571 650.367Z" fill="#323269"/>
<path d="M508.879 478.962L522.664 491.178L505.641 498.213L491.856 485.997L508.879 478.962Z" fill="#323269"/>
<path d="M772.367 513.379L755.344 520.414L741.559 508.198L758.582 501.163L772.367 513.379Z" fill="#323269"/>
<path d="M621.562 468.216L604.539 475.251L590.754 463.035L607.777 456L621.562 468.216Z" fill="#323269"/>
<path d="M652.374 473.401L635.351 480.436L621.566 468.22L638.589 461.185L652.374 473.401Z" fill="#323269"/>
<path d="M807.254 588.529L793.469 576.312L810.492 569.277L824.277 581.494L807.254 588.529Z" fill="#323269"/>
<path d="M461.875 570.034L475.66 582.25L458.637 589.285L444.852 577.069L461.875 570.034Z" fill="#323269"/>
<path d="M804.011 607.783L790.226 595.566L807.249 588.531L821.034 600.748L804.011 607.783Z" fill="#323269"/>
<path d="M465.117 550.781L478.902 562.997L461.879 570.032L448.094 557.816L465.117 550.781Z" fill="#323269"/>
<path d="M748.031 469.692L731.008 476.727L717.223 464.511L734.246 457.476L748.031 469.692Z" fill="#323269"/>
<path d="M444.023 487.847L457.808 500.063L440.785 507.098L427 494.882L444.023 487.847Z" fill="#323269"/>
<path d="M666.989 574.839L684.012 567.804L739.152 616.669L722.129 623.704L666.989 574.839Z" fill="#323269"/>
<path d="M496.762 645.185L513.785 638.15L527.57 650.367L510.547 657.401L496.762 645.185Z" fill="#323269"/>
<path d="M579.597 588.26L562.574 595.295L507.434 546.431L524.457 539.396L579.597 588.26Z" fill="#323269"/>
<path d="M663.754 594.09L680.777 587.055L708.347 611.487L691.324 618.522L663.754 594.09Z" fill="#323269"/>
<path d="M631.359 564.512L617.574 552.295L685.665 524.156L699.45 536.373L631.359 564.512Z" fill="#323269"/>
<path d="M646.73 601.124L660.515 613.34L592.424 641.479L578.639 629.263L646.73 601.124Z" fill="#323269"/>
<path d="M660.516 613.341L677.539 606.306L691.323 618.522L674.3 625.557L660.516 613.341Z" fill="#323269"/>
<path d="M621.597 538.26L604.574 545.295L577.004 520.863L594.027 513.828L621.597 538.26Z" fill="#323269"/>
<path d="M648.359 582.512L634.574 570.295L668.619 556.226L682.404 568.442L648.359 582.512Z" fill="#323269"/>
<path d="M711.582 592.235L728.605 585.2L783.746 634.066L766.723 641.1L711.582 592.235Z" fill="#323269"/>
<path d="M615.922 595.942L629.707 608.158L595.662 622.227L581.877 610.011L615.922 595.942Z" fill="#323269"/>
<path d="M614.597 515.26L597.574 522.295L583.79 510.08L600.813 503.045L614.597 515.26Z" fill="#323269"/>
<path d="M684.015 567.805L670.23 555.588L687.252 548.554L701.037 560.77L684.015 567.805Z" fill="#323269"/>
<path d="M585.113 590.762L598.898 602.978L581.876 610.013L568.091 597.796L585.113 590.762Z" fill="#323269"/>
<path d="M579.597 540.26L562.574 547.295L507.433 498.43L524.456 491.395L579.597 540.26Z" fill="#323269"/>
<path d="M631.359 531.512L617.574 519.295L685.666 491.156L699.452 503.372L631.359 531.512Z" fill="#323269"/>
<path d="M626.469 627.409L640.254 639.625L572.162 667.765L558.376 655.548L626.469 627.409Z" fill="#323269"/>
<path d="M1035.26 409.26H1028V416.52H1035.26V409.26Z" fill="#5A5AB5"/>
<path d="M1042.52 402H1035.26V409.259H1042.52V402Z" fill="#5A5AB5"/>
<path d="M628.145 68H621.859V80.5713H628.145V68Z" fill="#5A5AB5"/>
<path d="M622.262 80.979H615.977V87.2647H622.262V80.979Z" fill="#5A5AB5"/>
<path d="M622.262 93.551H615.977V99.8367H622.262V93.551Z" fill="#5A5AB5"/>
<path d="M634.836 80.979H628.551V87.2647H634.836V80.979Z" fill="#5A5AB5"/>
<path d="M634.836 93.551H628.551V99.8367H634.836V93.551Z" fill="#5A5AB5"/>
<path d="M628.145 99.428H621.859V111.999H628.145V99.428Z" fill="#5A5AB5"/>
<path d="M603 86.8573V93.143H615.571V86.8573H603Z" fill="#5A5AB5"/>
<path d="M634.43 86.8573V93.143H647.001V86.8573H634.43Z" fill="#5A5AB5"/>
<path d="M741.526 144H736.145V154.762H741.526V144Z" fill="#5A5AB5"/>
<path d="M736.143 154.763H730.762V160.144H736.143V154.763Z" fill="#5A5AB5"/>
<path d="M736.143 165.524H730.762V170.905H736.143V165.524Z" fill="#5A5AB5"/>
<path d="M746.904 154.763H741.523V160.144H746.904V154.763Z" fill="#5A5AB5"/>
<path d="M746.904 165.524H741.523V170.905H746.904V165.524Z" fill="#5A5AB5"/>
<path d="M741.526 170.906H736.145V181.668H741.526V170.906Z" fill="#5A5AB5"/>
<path d="M720 160.143V165.524H730.762V160.143H720Z" fill="#5A5AB5"/>
<path d="M746.906 160.143V165.524H757.668V160.143H746.906Z" fill="#5A5AB5"/>
<path d="M313.259 159H306V166.26H313.259V159Z" fill="#5A5AB5"/>
<path d="M320.517 166.26H313.258V173.52H320.517V166.26Z" fill="#5A5AB5"/>
<path d="M91.2595 11H84V18.2595H91.2595V11Z" fill="#5A5AB5"/>
<path d="M98.5173 18.2598H91.2578V25.5193H98.5173V18.2598Z" fill="#5A5AB5"/>
<path d="M66.779 200H59.5195V207.26H66.779V200Z" fill="#5A5AB5"/>
<path d="M52.2595 214.52H45V221.779H52.2595V214.52Z" fill="#5A5AB5"/>
<path d="M254.78 332H247.52V339.259H254.78V332Z" fill="#5A5AB5"/>
<path d="M240.26 346.52H233V353.78H240.26V346.52Z" fill="#5A5AB5"/>
<path d="M659.998 337H667.258V344.26H659.998V337Z" fill="#5A5AB5"/>
<path d="M674.517 351.52H681.777V358.779H674.517V351.52Z" fill="#5A5AB5"/>
<path d="M1324 160H1331.26V167.26H1324V160Z" fill="#5A5AB5"/>
<path d="M1338.52 174.52H1345.78V181.78H1338.52V174.52Z" fill="#5A5AB5"/>
<path d="M1441.78 61H1434.52V68.2595H1441.78V61Z" fill="#5A5AB5"/>
<path d="M1427.26 75.5195H1420V82.779H1427.26V75.5195Z" fill="#5A5AB5"/>
<path d="M608.517 298H601.258V305.259H608.517V298Z" fill="#5A5AB5"/>
<path d="M601.259 305.26H594V312.52H601.259V305.26Z" fill="#5A5AB5"/>
<path d="M615.78 305.26H608.52V312.52H615.78V305.26Z" fill="#5A5AB5"/>
<path d="M608.517 312.52H601.258V319.78H608.517V312.52Z" fill="#5A5AB5"/>
<path d="M476.517 51H469.258V58.2595H476.517V51Z" fill="#5A5AB5"/>
<path d="M469.259 58.2598H462V65.5193H469.259V58.2598Z" fill="#5A5AB5"/>
<path d="M483.78 58.2598H476.52V65.5193H483.78V58.2598Z" fill="#5A5AB5"/>
<path d="M476.517 65.5195H469.258V72.779H476.517V65.5195Z" fill="#5A5AB5"/>
<path d="M872.146 319H865.86V331.571H872.146V319Z" fill="#5A5AB5"/>
<path d="M865.856 331.571H859.57V337.857H865.856V331.571Z" fill="#5A5AB5"/>
<path d="M865.856 344.143H859.57V350.428H865.856V344.143Z" fill="#5A5AB5"/>
<path d="M878.426 331.571H872.14V337.857H878.426V331.571Z" fill="#5A5AB5"/>
<path d="M878.426 344.143H872.14V350.428H878.426V344.143Z" fill="#5A5AB5"/>
<path d="M872.146 350.429H865.86V363H872.146V350.429Z" fill="#5A5AB5"/>
<path d="M847 337.857V344.143H859.571V337.857H847Z" fill="#5A5AB5"/>
<path d="M878.43 337.857V344.143H891.001V337.857H878.43Z" fill="#5A5AB5"/>
<path d="M1353.26 430H1346V437.259H1353.26V430Z" fill="#5A5AB5"/>
<path d="M511.259 152H504V159.26H511.259V152Z" fill="#5A5AB5"/>
<path d="M174.26 109H167V116.259H174.26V109Z" fill="#5A5AB5"/>
<path d="M1266.26 87H1259V94.2595H1266.26V87Z" fill="#5A5AB5"/>
<path d="M822.26 48H815V55.2595H822.26V48Z" fill="#5A5AB5"/>
<path d="M1253.26 0H1246V7.2595H1253.26V0Z" fill="#5A5AB5"/>
<path d="M950.26 278.26H943V285.52H950.26V278.26Z" fill="#5A5AB5"/>
<path d="M957.518 271H950.258V278.259H957.518V271Z" fill="#5A5AB5"/>
<path d="M935.52 84H928.26V91.2595H935.52V84Z" fill="#5A5AB5"/>
<path d="M928.26 91.26H921V98.5195H928.26V91.26Z" fill="#5A5AB5"/>
<path d="M942.78 91.26H935.52V98.5195H942.78V91.26Z" fill="#5A5AB5"/>
<path d="M935.52 98.519H928.26V105.779H935.52V98.519Z" fill="#5A5AB5"/>
</g>
</g>
<defs>
<linearGradient id="paint0_linear_0_1" x1="754.5" y1="1058.04" x2="755" y2="425" gradientUnits="userSpaceOnUse">
<stop stop-color="#23234C"/>
<stop offset="1" stop-color="#252551"/>
</linearGradient>
<clipPath id="clip0_0_1">
<rect width="1440" height="682" fill="white"/>
</clipPath>
</defs>
</svg>
