<svg width="400" height="400" viewBox="0 0 400 400" fill="none" xmlns="http://www.w3.org/2000/svg">
<rect width="400" height="400" rx="50" fill="#222222"/>
<rect x="5" y="5" width="390" height="390" rx="45" stroke="#C2C2FF" stroke-width="10"/>
<rect x="5" y="5" width="390" height="390" rx="45" stroke="black" stroke-opacity="0.15" stroke-width="10"/>
<path d="M134.467 191.98C124.747 191.98 115.747 190.42 107.467 187.3C99.1866 184.06 91.9866 179.56 85.8666 173.8C79.8666 167.92 75.1866 161.02 71.8266 153.1C68.4666 145.18 66.7866 136.48 66.7866 127C66.7866 117.52 68.4666 108.82 71.8266 100.9C75.1866 92.98 79.9266 86.14 86.0466 80.38C92.1666 74.5 99.3666 70 107.647 66.88C115.927 63.64 124.927 62.02 134.647 62.02C145.207 62.02 154.807 63.88 163.447 67.6C172.207 71.2 179.527 76.54 185.407 83.62L168.667 99.46C164.227 94.54 159.247 90.88 153.727 88.48C148.207 85.96 142.267 84.7 135.907 84.7C129.667 84.7 123.967 85.72 118.807 87.76C113.647 89.8 109.147 92.74 105.307 96.58C101.467 100.3 98.4666 104.74 96.3066 109.9C94.2666 115.06 93.2466 120.76 93.2466 127C93.2466 133.24 94.2666 138.94 96.3066 144.1C98.4666 149.26 101.467 153.76 105.307 157.6C109.147 161.32 113.647 164.2 118.807 166.24C123.967 168.28 129.667 169.3 135.907 169.3C142.267 169.3 148.207 168.1 153.727 165.7C159.247 163.18 164.227 159.4 168.667 154.36L185.407 170.2C179.527 177.28 172.207 182.68 163.447 186.4C154.807 190.12 145.147 191.98 134.467 191.98ZM264.034 191.98C254.194 191.98 245.074 190.36 236.674 187.12C228.394 183.88 221.134 179.32 214.894 173.44C208.774 167.56 204.034 160.72 200.674 152.92C197.314 145 195.634 136.36 195.634 127C195.634 117.64 197.314 109.06 200.674 101.26C204.034 93.34 208.774 86.44 214.894 80.56C221.134 74.68 228.394 70.12 236.674 66.88C245.074 63.64 254.194 62.02 264.034 62.02C273.874 62.02 282.934 63.64 291.214 66.88C299.494 70.12 306.694 74.68 312.814 80.56C319.054 86.32 323.854 93.16 327.214 101.08C330.574 109 332.254 117.64 332.254 127C332.254 136.36 330.574 145 327.214 152.92C323.854 160.84 319.054 167.74 312.814 173.62C306.694 179.38 299.494 183.88 291.214 187.12C282.934 190.36 273.874 191.98 264.034 191.98ZM264.034 169.3C270.034 169.3 275.554 168.28 280.594 166.24C285.634 164.2 290.014 161.32 293.734 157.6C297.574 153.76 300.514 149.26 302.554 144.1C304.714 138.94 305.794 133.24 305.794 127C305.794 120.76 304.714 115.06 302.554 109.9C300.514 104.74 297.574 100.3 293.734 96.58C290.014 92.74 285.634 89.8 280.594 87.76C275.554 85.72 270.034 84.7 264.034 84.7C258.034 84.7 252.454 85.72 247.294 87.76C242.254 89.8 237.814 92.74 233.974 96.58C230.254 100.42 227.314 104.92 225.154 110.08C223.114 115.12 222.094 120.76 222.094 127C222.094 133.12 223.114 138.76 225.154 143.92C227.314 149.08 230.254 153.58 233.974 157.42C237.814 161.26 242.254 164.2 247.294 166.24C252.454 168.28 258.034 169.3 264.034 169.3ZM130.265 341.98C120.305 341.98 110.765 340.6 101.645 337.84C92.5247 335.08 85.2047 331.54 79.6847 327.22L88.8647 307.06C94.0247 311.02 100.325 314.26 107.765 316.78C115.205 319.3 122.765 320.56 130.445 320.56C136.565 320.56 141.545 319.9 145.385 318.58C149.225 317.26 151.985 315.52 153.665 313.36C155.465 311.08 156.365 308.5 156.365 305.62C156.365 302.02 154.985 299.14 152.225 296.98C149.585 294.82 146.105 293.08 141.785 291.76C137.465 290.44 132.665 289.18 127.385 287.98C122.105 286.78 116.825 285.4 111.545 283.84C106.265 282.16 101.405 280 96.9647 277.36C92.6447 274.72 89.1047 271.24 86.3447 266.92C83.7047 262.6 82.3847 257.08 82.3847 250.36C82.3847 243.4 84.2447 237.04 87.9647 231.28C91.8047 225.4 97.5647 220.72 105.245 217.24C112.925 213.76 122.645 212.02 134.405 212.02C142.085 212.02 149.705 212.98 157.265 214.9C164.825 216.82 171.485 219.58 177.245 223.18L168.965 243.34C163.205 239.98 157.325 237.52 151.325 235.96C145.445 234.28 139.685 233.44 134.045 233.44C128.045 233.44 123.125 234.16 119.285 235.6C115.445 237.04 112.685 238.96 111.005 241.36C109.325 243.64 108.485 246.22 108.485 249.1C108.485 252.7 109.805 255.58 112.445 257.74C115.205 259.9 118.745 261.64 123.065 262.96C127.385 264.16 132.185 265.36 137.465 266.56C142.745 267.76 148.025 269.2 153.305 270.88C158.585 272.44 163.385 274.54 167.705 277.18C172.145 279.7 175.685 283.12 178.325 287.44C181.085 291.64 182.465 297.04 182.465 303.64C182.465 310.6 180.545 316.96 176.705 322.72C172.985 328.48 167.225 333.16 159.425 336.76C151.745 340.24 142.025 341.98 130.265 341.98ZM268.651 341.98C258.931 341.98 249.931 340.42 241.651 337.3C233.371 334.06 226.171 329.56 220.051 323.8C214.051 317.92 209.371 311.02 206.011 303.1C202.651 295.18 200.971 286.48 200.971 277C200.971 267.52 202.651 258.82 206.011 250.9C209.371 242.98 214.111 236.14 220.231 230.38C226.351 224.5 233.551 220 241.831 216.88C250.111 213.64 259.111 212.02 268.831 212.02C279.391 212.02 288.991 213.88 297.631 217.6C306.391 221.2 313.711 226.54 319.591 233.62L302.851 249.46C298.411 244.54 293.431 240.88 287.911 238.48C282.391 235.96 276.451 234.7 270.091 234.7C263.851 234.7 258.151 235.72 252.991 237.76C247.831 239.8 243.331 242.74 239.491 246.58C235.651 250.3 232.651 254.74 230.491 259.9C228.451 265.06 227.431 270.76 227.431 277C227.431 283.24 228.451 288.94 230.491 294.1C232.651 299.26 235.651 303.76 239.491 307.6C243.331 311.32 247.831 314.2 252.991 316.24C258.151 318.28 263.851 319.3 270.091 319.3C276.451 319.3 282.391 318.1 287.911 315.7C293.431 313.18 298.411 309.4 302.851 304.36L319.591 320.2C313.711 327.28 306.391 332.68 297.631 336.4C288.991 340.12 279.331 341.98 268.651 341.98Z" fill="url(#paint0_linear_13_2)"/>
<rect width="400" height="400" rx="50" fill="#222222"/>
<rect x="5" y="5" width="390" height="390" rx="45" stroke="#C2C2FF" stroke-width="10"/>
<rect x="5" y="5" width="390" height="390" rx="45" stroke="black" stroke-opacity="0.15" stroke-width="10"/>
<path d="M134.467 191.98C124.747 191.98 115.747 190.42 107.467 187.3C99.1866 184.06 91.9866 179.56 85.8666 173.8C79.8666 167.92 75.1866 161.02 71.8266 153.1C68.4666 145.18 66.7866 136.48 66.7866 127C66.7866 117.52 68.4666 108.82 71.8266 100.9C75.1866 92.98 79.9266 86.14 86.0466 80.38C92.1666 74.5 99.3666 70 107.647 66.88C115.927 63.64 124.927 62.02 134.647 62.02C145.207 62.02 154.807 63.88 163.447 67.6C172.207 71.2 179.527 76.54 185.407 83.62L168.667 99.46C164.227 94.54 159.247 90.88 153.727 88.48C148.207 85.96 142.267 84.7 135.907 84.7C129.667 84.7 123.967 85.72 118.807 87.76C113.647 89.8 109.147 92.74 105.307 96.58C101.467 100.3 98.4666 104.74 96.3066 109.9C94.2666 115.06 93.2466 120.76 93.2466 127C93.2466 133.24 94.2666 138.94 96.3066 144.1C98.4666 149.26 101.467 153.76 105.307 157.6C109.147 161.32 113.647 164.2 118.807 166.24C123.967 168.28 129.667 169.3 135.907 169.3C142.267 169.3 148.207 168.1 153.727 165.7C159.247 163.18 164.227 159.4 168.667 154.36L185.407 170.2C179.527 177.28 172.207 182.68 163.447 186.4C154.807 190.12 145.147 191.98 134.467 191.98ZM264.034 191.98C254.194 191.98 245.074 190.36 236.674 187.12C228.394 183.88 221.134 179.32 214.894 173.44C208.774 167.56 204.034 160.72 200.674 152.92C197.314 145 195.634 136.36 195.634 127C195.634 117.64 197.314 109.06 200.674 101.26C204.034 93.34 208.774 86.44 214.894 80.56C221.134 74.68 228.394 70.12 236.674 66.88C245.074 63.64 254.194 62.02 264.034 62.02C273.874 62.02 282.934 63.64 291.214 66.88C299.494 70.12 306.694 74.68 312.814 80.56C319.054 86.32 323.854 93.16 327.214 101.08C330.574 109 332.254 117.64 332.254 127C332.254 136.36 330.574 145 327.214 152.92C323.854 160.84 319.054 167.74 312.814 173.62C306.694 179.38 299.494 183.88 291.214 187.12C282.934 190.36 273.874 191.98 264.034 191.98ZM264.034 169.3C270.034 169.3 275.554 168.28 280.594 166.24C285.634 164.2 290.014 161.32 293.734 157.6C297.574 153.76 300.514 149.26 302.554 144.1C304.714 138.94 305.794 133.24 305.794 127C305.794 120.76 304.714 115.06 302.554 109.9C300.514 104.74 297.574 100.3 293.734 96.58C290.014 92.74 285.634 89.8 280.594 87.76C275.554 85.72 270.034 84.7 264.034 84.7C258.034 84.7 252.454 85.72 247.294 87.76C242.254 89.8 237.814 92.74 233.974 96.58C230.254 100.42 227.314 104.92 225.154 110.08C223.114 115.12 222.094 120.76 222.094 127C222.094 133.12 223.114 138.76 225.154 143.92C227.314 149.08 230.254 153.58 233.974 157.42C237.814 161.26 242.254 164.2 247.294 166.24C252.454 168.28 258.034 169.3 264.034 169.3ZM130.265 341.98C120.305 341.98 110.765 340.6 101.645 337.84C92.5247 335.08 85.2047 331.54 79.6847 327.22L88.8647 307.06C94.0247 311.02 100.325 314.26 107.765 316.78C115.205 319.3 122.765 320.56 130.445 320.56C136.565 320.56 141.545 319.9 145.385 318.58C149.225 317.26 151.985 315.52 153.665 313.36C155.465 311.08 156.365 308.5 156.365 305.62C156.365 302.02 154.985 299.14 152.225 296.98C149.585 294.82 146.105 293.08 141.785 291.76C137.465 290.44 132.665 289.18 127.385 287.98C122.105 286.78 116.825 285.4 111.545 283.84C106.265 282.16 101.405 280 96.9647 277.36C92.6447 274.72 89.1047 271.24 86.3447 266.92C83.7047 262.6 82.3847 257.08 82.3847 250.36C82.3847 243.4 84.2447 237.04 87.9647 231.28C91.8047 225.4 97.5647 220.72 105.245 217.24C112.925 213.76 122.645 212.02 134.405 212.02C142.085 212.02 149.705 212.98 157.265 214.9C164.825 216.82 171.485 219.58 177.245 223.18L168.965 243.34C163.205 239.98 157.325 237.52 151.325 235.96C145.445 234.28 139.685 233.44 134.045 233.44C128.045 233.44 123.125 234.16 119.285 235.6C115.445 237.04 112.685 238.96 111.005 241.36C109.325 243.64 108.485 246.22 108.485 249.1C108.485 252.7 109.805 255.58 112.445 257.74C115.205 259.9 118.745 261.64 123.065 262.96C127.385 264.16 132.185 265.36 137.465 266.56C142.745 267.76 148.025 269.2 153.305 270.88C158.585 272.44 163.385 274.54 167.705 277.18C172.145 279.7 175.685 283.12 178.325 287.44C181.085 291.64 182.465 297.04 182.465 303.64C182.465 310.6 180.545 316.96 176.705 322.72C172.985 328.48 167.225 333.16 159.425 336.76C151.745 340.24 142.025 341.98 130.265 341.98ZM268.651 341.98C258.931 341.98 249.931 340.42 241.651 337.3C233.371 334.06 226.171 329.56 220.051 323.8C214.051 317.92 209.371 311.02 206.011 303.1C202.651 295.18 200.971 286.48 200.971 277C200.971 267.52 202.651 258.82 206.011 250.9C209.371 242.98 214.111 236.14 220.231 230.38C226.351 224.5 233.551 220 241.831 216.88C250.111 213.64 259.111 212.02 268.831 212.02C279.391 212.02 288.991 213.88 297.631 217.6C306.391 221.2 313.711 226.54 319.591 233.62L302.851 249.46C298.411 244.54 293.431 240.88 287.911 238.48C282.391 235.96 276.451 234.7 270.091 234.7C263.851 234.7 258.151 235.72 252.991 237.76C247.831 239.8 243.331 242.74 239.491 246.58C235.651 250.3 232.651 254.74 230.491 259.9C228.451 265.06 227.431 270.76 227.431 277C227.431 283.24 228.451 288.94 230.491 294.1C232.651 299.26 235.651 303.76 239.491 307.6C243.331 311.32 247.831 314.2 252.991 316.24C258.151 318.28 263.851 319.3 270.091 319.3C276.451 319.3 282.391 318.1 287.911 315.7C293.431 313.18 298.411 309.4 302.851 304.36L319.591 320.2C313.711 327.28 306.391 332.68 297.631 336.4C288.991 340.12 279.331 341.98 268.651 341.98Z" fill="url(#paint1_linear_13_2)"/>
<defs>
<linearGradient id="paint0_linear_13_2" x1="40" y1="35" x2="359.5" y2="371.5" gradientUnits="userSpaceOnUse">
<stop stop-color="#403F7D"/>
<stop offset="0.324458" stop-color="#A0A0FF"/>
<stop offset="0.557328" stop-color="#C2C2FF"/>
<stop offset="0.695467" stop-color="#A0A0FF"/>
<stop offset="1" stop-color="#5A5AB5"/>
</linearGradient>
<linearGradient id="paint1_linear_13_2" x1="40" y1="35" x2="359.5" y2="371.5" gradientUnits="userSpaceOnUse">
<stop stop-color="#403F7D"/>
<stop offset="0.324458" stop-color="#A0A0FF"/>
<stop offset="0.557328" stop-color="#C2C2FF"/>
<stop offset="0.695467" stop-color="#A0A0FF"/>
<stop offset="1" stop-color="#5A5AB5"/>
</linearGradient>
</defs>
</svg>
